<svg width="81" height="81" viewBox="0 0 81 81" fill="none" xmlns="http://www.w3.org/2000/svg">
<rect width="81" height="81" fill="black"/>
<path d="M44.1111 8C53.6444 8 63.1778 8 73 8C73 17.5653 73 27.1305 73 36.9856C72.3708 37.1428 71.7432 37.2964 71.1104 37.4367C71.0255 37.4557 70.9406 37.4746 70.8557 37.4936C70.6256 37.5449 70.3955 37.5961 70.1654 37.6472C69.916 37.7027 69.6666 37.7583 69.4173 37.8138C68.9303 37.9223 68.4432 38.0307 67.9562 38.139C67.5605 38.227 67.1648 38.3151 66.7691 38.4031C65.6462 38.653 64.5233 38.9029 63.4003 39.1525C63.3399 39.1659 63.2796 39.1794 63.2174 39.1932C63.1267 39.2134 63.1267 39.2134 63.0342 39.2339C62.052 39.4523 61.0699 39.6709 60.0878 39.8897C59.0784 40.1146 58.0689 40.3392 57.0593 40.5636C56.4929 40.6896 55.9266 40.8156 55.3602 40.9418C54.8788 41.0491 54.3973 41.1562 53.9158 41.2631C53.6701 41.3176 53.4244 41.3723 53.1788 41.4271C52.9541 41.4773 52.7294 41.5272 52.5047 41.577C52.3845 41.6036 52.2644 41.6305 52.1444 41.6574C52.0378 41.6809 52.0378 41.6809 51.9292 41.7049C51.8678 41.7186 51.8064 41.7322 51.7431 41.7463C51.5824 41.7751 51.5824 41.7751 51.3333 41.7751C51.3352 41.8349 51.3371 41.8948 51.339 41.9564C51.3832 43.384 51.4038 44.8096 51.3975 46.2378C51.3965 46.501 51.3958 46.7642 51.3951 47.0274C51.3939 47.4802 51.3923 47.933 51.3906 48.3859C51.3882 49.0405 51.3861 49.6952 51.3841 50.3499C51.3809 51.4128 51.3774 52.4757 51.3737 53.5386C51.3701 54.5693 51.3666 55.6 51.3634 56.6308C51.3631 56.6953 51.3629 56.7598 51.3627 56.8262C51.3611 57.3308 51.3595 57.8354 51.358 58.3401C51.3502 60.8009 51.3417 63.2617 51.3333 65.7225C56.1 65.7225 60.8667 65.7225 65.7778 65.7225C65.7778 60.9604 65.7778 56.1983 65.7778 51.2919C63.3944 51.2919 61.0111 51.2919 58.5556 51.2919C58.535 48.9108 58.5145 46.5298 58.4933 44.0766C63.2805 44.0766 68.0677 44.0766 73 44.0766C73 53.6008 73 63.125 73 72.9378C63.4667 72.9378 53.9333 72.9378 44.1111 72.9378C44.1111 63.1878 44.1111 53.4378 44.1111 43.3923C43.8029 43.4744 43.4947 43.5566 43.1772 43.6411C42.9541 43.694 42.7312 43.7457 42.5073 43.795C42.4173 43.8151 42.4173 43.8151 42.3254 43.8356C42.131 43.8788 41.9365 43.9218 41.742 43.9648C41.6055 43.9951 41.4689 44.0254 41.3324 44.0558C41.0483 44.1188 40.7642 44.1817 40.4801 44.2446C40.1154 44.3252 39.7508 44.4062 39.3862 44.4872C39.1053 44.5496 38.8243 44.6119 38.5433 44.6742C38.4087 44.704 38.2741 44.7338 38.1395 44.7637C37.9526 44.8053 37.7656 44.8466 37.5785 44.8879C37.5228 44.9003 37.4671 44.9127 37.4097 44.9255C37.0276 45.0096 37.0277 45.0096 36.8889 45.0096C36.8889 54.2464 36.8889 63.4832 36.8889 73C27.3556 73 17.8222 73 8 73C8 63.4553 8 53.9105 8 44.0766C14.4436 42.6299 14.4436 42.6299 17.33 41.9905C17.5857 41.9338 17.8415 41.8771 18.0972 41.8204C19.0395 41.6115 19.9818 41.4027 20.9241 41.1939C21.6631 41.0302 22.4021 40.8663 23.141 40.7024C23.911 40.5316 24.681 40.3609 25.451 40.1903C25.879 40.0955 26.307 40.0006 26.735 39.9057C27.1323 39.8175 27.5296 39.7295 27.9269 39.6416C28.0725 39.6093 28.2182 39.577 28.3638 39.5447C28.5615 39.5008 28.7592 39.457 28.957 39.4133C29.0151 39.4004 29.0732 39.3874 29.1331 39.3741C29.1857 39.3625 29.2382 39.3509 29.2924 39.339C29.338 39.3289 29.3835 39.3188 29.4305 39.3084C29.5421 39.2871 29.5421 39.2871 29.6667 39.2871C29.6667 31.3639 29.6667 23.4408 29.6667 15.2775C24.9 15.2775 20.1333 15.2775 15.2222 15.2775C15.2222 20.0396 15.2222 24.8017 15.2222 29.7081C17.6056 29.7081 19.9889 29.7081 22.4444 29.7081C22.4444 32.0892 22.4444 34.4702 22.4444 36.9234C17.6778 36.9234 12.9111 36.9234 8 36.9234C8 27.3992 8 17.875 8 8.0622C17.5333 8.0622 27.0667 8.0622 36.8889 8.0622C36.8889 17.8327 36.8889 27.6033 36.8889 37.6699C37.6902 37.4851 38.4915 37.3004 39.317 37.11C40.0107 36.9535 40.7043 36.7971 41.3984 36.6426C41.6479 36.5871 41.8972 36.5311 42.1466 36.4751C42.3425 36.4312 42.5384 36.3876 42.7343 36.344C42.8266 36.3235 42.9188 36.3028 43.0109 36.282C43.1377 36.2535 43.2646 36.2253 43.3915 36.1973C43.4631 36.1813 43.5347 36.1653 43.6085 36.1488C43.7998 36.1148 43.7998 36.1148 44.1111 36.1148C44.1111 26.8369 44.1111 17.559 44.1111 8ZM51.3333 15.2153C51.3333 21.5785 51.3333 27.9416 51.3333 34.4976C54.5305 33.7965 57.7272 33.0943 60.922 32.3825C61.3298 32.2917 61.7377 32.201 62.1456 32.1104C62.5538 32.0197 62.962 31.9288 63.3702 31.8379C63.61 31.7845 63.8498 31.7311 64.0896 31.6779C64.3105 31.6288 64.5313 31.5796 64.7521 31.5303C64.8713 31.5037 64.9905 31.4773 65.1097 31.4509C65.18 31.4352 65.2504 31.4194 65.3228 31.4032C65.384 31.3896 65.4452 31.376 65.5083 31.3619C65.6535 31.3308 65.6535 31.3308 65.7778 31.2632C65.7778 25.9674 65.7778 20.6716 65.7778 15.2153C61.0111 15.2153 56.2444 15.2153 51.3333 15.2153ZM29.1687 46.6752C29.1195 46.686 29.0704 46.6968 29.0197 46.7079C28.966 46.72 28.9124 46.732 28.8571 46.7444C28.7712 46.7634 28.7712 46.7634 28.6835 46.7828C28.4911 46.8254 28.2987 46.8683 28.1064 46.9113C27.9686 46.9419 27.8309 46.9724 27.6931 47.0029C27.3186 47.086 26.9442 47.1693 26.5698 47.2528C26.1784 47.3399 25.7871 47.4268 25.3957 47.5137C24.7384 47.6596 24.0812 47.8058 23.424 47.9521C22.7475 48.1027 22.0711 48.2532 21.3945 48.4034C21.332 48.4173 21.332 48.4173 21.2683 48.4314C21.2267 48.4407 21.1851 48.4499 21.1422 48.4594C21.0584 48.478 20.9747 48.4966 20.8909 48.5152C20.8496 48.5244 20.8083 48.5336 20.7658 48.543C20.0825 48.6948 19.3992 48.8467 18.716 48.9986C18.4825 49.0505 18.249 49.1024 18.0155 49.1543C17.649 49.2357 17.2825 49.3173 16.9161 49.3989C16.7814 49.4289 16.6466 49.4589 16.5118 49.4888C16.3284 49.5295 16.145 49.5704 15.9616 49.6113C15.9078 49.6232 15.854 49.6351 15.7986 49.6474C15.6032 49.6911 15.4123 49.7357 15.2222 49.799C15.2222 55.0743 15.2222 60.3496 15.2222 65.7847C19.9889 65.7847 24.7556 65.7847 29.6667 65.7847C29.6667 59.4626 29.6667 53.1405 29.6667 46.6268C29.478 46.6268 29.3473 46.6355 29.1687 46.6752Z" fill="white"/>
</svg>
