<svg width="201" height="81" viewBox="0 0 201 81" fill="none" xmlns="http://www.w3.org/2000/svg">
<path d="M5.05759 75C3.5644 75 2.36021 74.5906 1.44503 73.7717C0.481675 73.001 0 71.9654 0 70.6649C0 69.7016 0.289005 68.9068 0.867016 68.2806C1.39686 67.6544 2.09529 67.3414 2.9623 67.3414C3.78115 67.3414 4.35916 67.5822 4.69634 68.0639C5.03351 68.5455 5.29843 69.0995 5.4911 69.7257C5.73194 70.3518 5.99686 70.9058 6.28586 71.3874C6.57487 71.8691 7.03246 72.1099 7.65864 72.1099C8.57382 72.1099 9.27225 71.5801 9.75393 70.5204C10.2356 69.4607 10.4764 67.9675 10.4764 66.0408V12.2136C10.4764 11.2021 10.3079 10.5277 9.97068 10.1906C9.68168 9.8534 9.03141 9.58848 8.01989 9.39581L6.35811 9.1068C5.73194 8.9623 5.41885 8.6733 5.41885 8.23979C5.41885 7.70995 5.7801 7.44502 6.50262 7.44502H19.5801C20.3026 7.44502 20.6639 7.70995 20.6639 8.23979C20.6639 8.6733 20.3508 8.9623 19.7246 9.1068L18.0628 9.39581C17.0513 9.58848 16.377 9.8534 16.0398 10.1906C15.7508 10.5277 15.6063 11.2021 15.6063 12.2136V56.2869C15.6063 62.067 14.667 66.6188 12.7885 69.9424C10.9099 73.3141 8.33298 75 5.05759 75Z" fill="black"/>
<path d="M29.4385 60.1162C27.4154 60.1162 25.7536 59.49 24.4531 58.2377C23.1526 56.9372 22.5023 55.2272 22.5023 53.1079C22.5023 51.0366 23.1526 49.0859 24.4531 47.2555C25.7536 45.377 27.5358 43.6911 29.7997 42.1979C32.0636 40.7047 34.6405 39.5005 37.5306 38.5853C38.1568 38.3927 38.4699 37.9832 38.4699 37.3571V30.7822C38.4699 28.4702 38.1086 26.8325 37.3861 25.8691C36.6636 24.8576 35.6762 24.3518 34.4238 24.3518C33.2196 24.3518 32.1118 24.9058 31.1002 26.0136C30.1369 27.0733 29.4385 28.8796 29.0049 31.4325C28.7641 32.9738 28.2343 34.1058 27.4154 34.8283C26.6447 35.5026 25.85 35.8398 25.0311 35.8398C23.6824 35.8398 23.0081 35.1654 23.0081 33.8168C23.0081 32.4199 23.3934 31.0471 24.1641 29.6984C24.983 28.3016 26.0426 27.0492 27.3432 25.9414C28.6437 24.7853 30.0646 23.8702 31.606 23.1958C33.1474 22.5215 34.6887 22.1843 36.2301 22.1843C40.9987 22.1843 43.383 24.9539 43.383 30.4932V52.6021C43.383 54.6251 43.8887 55.6367 44.9002 55.6367C45.5264 55.6367 46.1044 55.2272 46.6343 54.4084C47.1641 53.5414 47.429 52.0963 47.429 50.0733C47.429 49.3026 47.7421 48.9173 48.3683 48.9173C48.9463 48.9173 49.2353 49.3267 49.2353 50.1455C49.2353 53.6618 48.6091 56.2147 47.3568 57.8042C46.1526 59.3455 44.7798 60.1162 43.2385 60.1162C42.0824 60.1162 41.1673 59.6586 40.4929 58.7435C39.8186 57.7801 39.361 56.6482 39.1201 55.3476C39.072 54.866 38.8552 54.6251 38.4699 54.6251C38.1327 54.577 37.7955 54.7937 37.4584 55.2754C36.3023 56.8649 35.1222 58.0691 33.918 58.888C32.7138 59.7068 31.2207 60.1162 29.4385 60.1162ZM31.3892 56.7927C32.6416 56.7927 33.7976 56.3592 34.8573 55.4921C35.917 54.577 36.784 53.3728 37.4584 51.8796C38.1327 50.3864 38.4699 48.7005 38.4699 46.822V41.5476C38.4699 40.6325 37.9641 40.3675 36.9526 40.7529C34.0144 41.8126 31.7264 43.2817 30.0887 45.1602C28.4992 46.9906 27.7044 49.2063 27.7044 51.8073C27.7044 55.1309 28.9327 56.7927 31.3892 56.7927Z" fill="black"/>
<path d="M54.3533 74.2775C53.0528 74.2775 52.0172 73.8199 51.2465 72.9047C50.4758 72.0377 50.0905 71.0262 50.0905 69.8702C50.0905 68.955 50.3554 68.1843 50.8852 67.5581C51.4151 66.9319 52.1376 66.6188 53.0528 66.6188C53.8235 66.6188 54.3774 66.7874 54.7146 67.1246C55.0517 67.4618 55.2926 67.8471 55.4371 68.2806C55.5816 68.7141 55.7261 69.0995 55.8706 69.4366C56.0151 69.7738 56.3041 69.9424 56.7376 69.9424C57.2674 69.9424 57.7491 69.5571 58.1826 68.7864C58.6161 68.0639 59.2182 66.4984 59.9889 64.09C60.4706 62.645 60.7596 61.3927 60.8559 60.333C61.0004 59.2733 60.9763 58.1414 60.7837 56.9372C60.6392 55.733 60.2779 54.2639 59.6999 52.5298L51.8245 27.4586C51.4873 26.3026 51.1502 25.556 50.813 25.2188C50.524 24.8817 50.0423 24.6408 49.368 24.4963L48.2842 24.2796C47.658 24.1351 47.3449 23.822 47.3449 23.3403C47.3449 22.8586 47.6821 22.6178 48.3564 22.6178H60.2779C60.9523 22.6178 61.2894 22.8586 61.2894 23.3403C61.2894 23.8702 60.9763 24.1832 60.3502 24.2796L59.1941 24.4241C58.0381 24.5686 57.2915 24.8576 56.9543 25.2911C56.6653 25.6764 56.6894 26.399 57.0266 27.4586L63.3847 48.6283C63.5292 49.1099 63.746 49.3508 64.035 49.3508C64.3721 49.3508 64.613 49.1099 64.7575 48.6283L70.8988 28.7592C71.2842 27.4586 71.3805 26.4953 71.1879 25.8691C71.0434 25.1948 70.369 24.7613 69.1648 24.5686L67.6475 24.2796C67.0214 24.1351 66.7083 23.822 66.7083 23.3403C66.7083 22.8586 67.0454 22.6178 67.7198 22.6178H76.8957C77.5701 22.6178 77.9072 22.8827 77.9072 23.4126C77.9072 23.8942 77.6182 24.2314 77.0402 24.4241L76.39 24.6408C75.6674 24.8817 75.0653 25.3152 74.5837 25.9414C74.102 26.5675 73.5962 27.6513 73.0664 29.1927L62.3009 62.7895C61.2413 66.1613 60.2779 68.666 59.4109 70.3037C58.592 71.9414 57.7973 73.001 57.0266 73.4827C56.2559 74.0126 55.3648 74.2775 54.3533 74.2775Z" fill="black"/>
<path d="M92.0894 59.466C91.3669 59.466 91.0056 59.201 91.0056 58.6712C91.0056 58.2377 91.3187 57.9487 91.9449 57.8042L93.6067 57.5152C94.6182 57.3225 95.2684 57.0576 95.5574 56.7204C95.8946 56.3832 96.0632 55.7089 96.0632 54.6974V12.2136C96.0632 11.2021 95.8946 10.5277 95.5574 10.1906C95.2684 9.8534 94.6182 9.58848 93.6067 9.39581L91.9449 9.1068C91.3187 8.9623 91.0056 8.6733 91.0056 8.23979C91.0056 7.70995 91.3669 7.44502 92.0894 7.44502H115.354C116.462 7.44502 117.064 7.99895 117.161 9.1068L117.739 21.1005C117.835 21.9194 117.522 22.3288 116.799 22.3288C116.221 22.3288 115.884 22.0157 115.788 21.3895L115.427 19.0052C115.041 16.5005 114.367 14.5497 113.404 13.1529C112.44 11.756 111.356 10.7686 110.152 10.1906C108.948 9.56439 107.792 9.25131 106.684 9.25131C104.565 9.25131 103.12 9.58848 102.349 10.2628C101.578 10.9372 101.193 11.9728 101.193 13.3696V30.4209C101.193 31.0953 101.53 31.4325 102.205 31.4325H104.733C106.853 31.4325 108.153 30.3005 108.635 28.0366L109.43 24.4241C109.574 23.7979 109.935 23.4848 110.513 23.4848C111.091 23.4848 111.38 23.8942 111.38 24.7131V40.9696C111.38 41.7885 111.091 42.1979 110.513 42.1979C109.935 42.1979 109.574 41.8848 109.43 41.2586L108.635 37.7183C108.298 36.0325 107.816 34.9246 107.19 34.3948C106.612 33.8649 105.769 33.6 104.661 33.6H102.205C101.53 33.6 101.193 33.9372 101.193 34.6115V54.3361C101.193 55.3476 101.338 56.0702 101.627 56.5037C101.964 56.889 102.638 57.1539 103.65 57.2984L107.045 57.8042C107.575 57.9005 107.84 58.1654 107.84 58.5989C107.84 59.177 107.479 59.466 106.756 59.466H92.0894Z" fill="black"/>
<path d="M130.477 60.1162C128.02 60.1162 125.805 59.2974 123.83 57.6597C121.903 55.9738 120.362 53.6859 119.206 50.7958C118.05 47.9058 117.472 44.6785 117.472 41.1141C117.472 37.5497 118.05 34.3466 119.206 31.5047C120.362 28.6628 121.927 26.399 123.902 24.7131C125.877 23.0272 128.068 22.1843 130.477 22.1843C132.933 22.1843 135.125 23.0272 137.052 24.7131C139.027 26.399 140.592 28.6628 141.748 31.5047C142.904 34.3466 143.482 37.5497 143.482 41.1141C143.482 44.6785 142.904 47.9058 141.748 50.7958C140.64 53.6859 139.099 55.9738 137.124 57.6597C135.149 59.2974 132.933 60.1162 130.477 60.1162ZM130.477 58.3099C135.486 58.3099 137.991 52.578 137.991 41.1141C137.991 29.6984 135.486 23.9906 130.477 23.9906C125.467 23.9906 122.963 29.6984 122.963 41.1141C122.963 52.578 125.467 58.3099 130.477 58.3099Z" fill="black"/>
<path d="M156.43 27.2419C158.405 23.8702 160.789 22.1843 163.583 22.1843C165.172 22.1843 166.352 22.666 167.123 23.6293C167.894 24.5445 168.279 25.5801 168.279 26.7361C168.279 27.6513 168.038 28.3979 167.556 28.9759C167.123 29.5539 166.424 29.8429 165.461 29.8429C164.69 29.8429 164.112 29.6743 163.727 29.3372C163.39 28.9518 163.101 28.5183 162.86 28.0366C162.667 27.555 162.427 27.1455 162.138 26.8084C161.849 26.423 161.367 26.2304 160.693 26.2304C159.826 26.2304 159.007 26.7602 158.236 27.8199C157.465 28.8314 156.815 30.2042 156.285 31.9382C155.804 33.6722 155.563 35.6471 155.563 37.8628V54.6251C155.563 55.6366 155.707 56.3592 155.996 56.7927C156.333 57.2262 157.008 57.4911 158.019 57.5874L159.97 57.8042C160.5 57.9005 160.765 58.1654 160.765 58.5989C160.765 59.177 160.404 59.466 159.681 59.466H147.471C146.748 59.466 146.387 59.201 146.387 58.6712C146.387 58.2377 146.7 57.9487 147.326 57.8042L148.193 57.6597C149.205 57.467 149.855 57.178 150.144 56.7927C150.481 56.3592 150.65 55.6366 150.65 54.6251V30.3487C150.65 29.4817 150.505 28.9037 150.216 28.6147C149.975 28.2775 149.518 28.0607 148.843 27.9644L147.326 27.7476C146.7 27.6995 146.387 27.4346 146.387 26.9529C146.387 26.5675 146.772 26.3026 147.543 26.1581C149.036 25.9173 150.168 25.5319 150.939 25.0021C151.757 24.4722 152.6 23.822 153.467 23.0513C153.901 22.6178 154.262 22.401 154.551 22.401C154.985 22.401 155.201 22.6901 155.201 23.2681V27.1696C155.201 27.5068 155.346 27.7236 155.635 27.8199C155.924 27.8681 156.189 27.6754 156.43 27.2419Z" fill="black"/>
<path d="M181.382 60.1162C179.263 60.1162 177.36 59.3937 175.675 57.9487C174.037 56.4555 172.76 54.4084 171.845 51.8073C170.93 49.1581 170.472 46.0995 170.472 42.6314C170.472 38.5853 171.099 35.045 172.351 32.0105C173.603 28.9277 175.337 26.5194 177.553 24.7853C179.769 23.0513 182.273 22.1843 185.067 22.1843C185.742 22.1843 186.416 22.2565 187.09 22.401C187.765 22.4974 188.415 22.6901 189.041 22.9791C189.812 23.3644 190.197 23.1958 190.197 22.4733V13.2251C190.197 12.3581 190.053 11.756 189.764 11.4188C189.523 11.0817 189.065 10.889 188.391 10.8408L186.512 10.6241C185.982 10.5277 185.717 10.2387 185.717 9.75707C185.717 9.27539 185.982 8.98639 186.512 8.89005C188.054 8.60105 189.282 8.26387 190.197 7.87853C191.16 7.49319 191.955 7.10785 192.581 6.72251C193.352 6.24084 193.93 6 194.315 6C194.845 6 195.11 6.38534 195.11 7.15602V52.6021C195.11 54.6251 195.616 55.6367 196.627 55.6367C197.254 55.6367 197.832 55.2272 198.361 54.4084C198.891 53.5414 199.156 52.0963 199.156 50.0733C199.156 49.3026 199.469 48.9173 200.095 48.9173C200.673 48.9173 200.962 49.3267 200.962 50.1455C200.962 53.6618 200.36 56.2147 199.156 57.8042C197.952 59.3455 196.579 60.1162 195.038 60.1162C193.641 60.1162 192.581 59.6586 191.859 58.7435C191.136 57.7801 190.655 56.6482 190.414 55.3476C190.366 54.9623 190.197 54.7696 189.908 54.7696C189.619 54.7215 189.354 54.89 189.113 55.2754C187.765 57.1539 186.536 58.4304 185.428 59.1047C184.321 59.7791 182.972 60.1162 181.382 60.1162ZM182.972 56.7927C184.224 56.7927 185.38 56.3832 186.44 55.5644C187.548 54.6974 188.439 53.5414 189.113 52.0963C189.836 50.6513 190.197 49.0377 190.197 47.2555V30.999C190.197 28.8314 189.691 27.1215 188.68 25.8691C187.716 24.6168 186.44 23.9906 184.85 23.9906C182.153 23.9906 179.961 25.5801 178.276 28.7592C176.638 31.8901 175.819 36.177 175.819 41.6199C175.819 46.5812 176.445 50.3623 177.698 52.9633C178.998 55.5162 180.756 56.7927 182.972 56.7927Z" fill="black"/>
</svg>
