<svg width="89" height="31" viewBox="0 0 89 31" fill="none" xmlns="http://www.w3.org/2000/svg">
<path d="M2.24 30.56C1.57867 30.56 1.04533 30.3787 0.64 30.016C0.213333 29.6747 0 29.216 0 28.64C0 28.2133 0.128 27.8613 0.384 27.584C0.618667 27.3067 0.928 27.168 1.312 27.168C1.67467 27.168 1.93067 27.2747 2.08 27.488C2.22933 27.7013 2.34667 27.9467 2.432 28.224C2.53867 28.5013 2.656 28.7467 2.784 28.96C2.912 29.1733 3.11467 29.28 3.392 29.28C3.79733 29.28 4.10667 29.0453 4.32 28.576C4.53333 28.1067 4.64 27.4453 4.64 26.592V2.752C4.64 2.304 4.56533 2.00533 4.416 1.856C4.288 1.70667 4 1.58933 3.552 1.504L2.816 1.376C2.53867 1.312 2.4 1.184 2.4 0.991999C2.4 0.757332 2.56 0.639999 2.88 0.639999H8.672C8.992 0.639999 9.152 0.757332 9.152 0.991999C9.152 1.184 9.01333 1.312 8.736 1.376L8 1.504C7.552 1.58933 7.25333 1.70667 7.104 1.856C6.976 2.00533 6.912 2.304 6.912 2.752V22.272C6.912 24.832 6.496 26.848 5.664 28.32C4.832 29.8133 3.69067 30.56 2.24 30.56Z" fill="black"/>
<path d="M13.0382 23.968C12.1422 23.968 11.4062 23.6907 10.8302 23.136C10.2542 22.56 9.96625 21.8027 9.96625 20.864C9.96625 19.9467 10.2542 19.0827 10.8302 18.272C11.4062 17.44 12.1956 16.6933 13.1982 16.032C14.2009 15.3707 15.3422 14.8373 16.6222 14.432C16.8996 14.3467 17.0382 14.1653 17.0382 13.888V10.976C17.0382 9.952 16.8783 9.22667 16.5583 8.8C16.2383 8.352 15.8009 8.128 15.2463 8.128C14.7129 8.128 14.2222 8.37333 13.7743 8.864C13.3476 9.33333 13.0383 10.1333 12.8463 11.264C12.7396 11.9467 12.5049 12.448 12.1423 12.768C11.8009 13.0667 11.4489 13.216 11.0863 13.216C10.4889 13.216 10.1903 12.9173 10.1903 12.32C10.1903 11.7013 10.3609 11.0933 10.7023 10.496C11.0649 9.87733 11.5343 9.32267 12.1103 8.832C12.6863 8.32 13.3156 7.91467 13.9983 7.616C14.6809 7.31733 15.3636 7.168 16.0463 7.168C18.1583 7.168 19.2143 8.39467 19.2143 10.848V20.64C19.2143 21.536 19.4383 21.984 19.8863 21.984C20.1636 21.984 20.4196 21.8027 20.6543 21.44C20.8889 21.056 21.0063 20.416 21.0063 19.52C21.0063 19.1787 21.1449 19.008 21.4223 19.008C21.6783 19.008 21.8063 19.1893 21.8063 19.552C21.8063 21.1093 21.5289 22.24 20.9743 22.944C20.4409 23.6267 19.8329 23.968 19.1503 23.968C18.6383 23.968 18.2329 23.7653 17.9342 23.36C17.6356 22.9333 17.4329 22.432 17.3263 21.856C17.3049 21.6427 17.2089 21.536 17.0382 21.536C16.8889 21.5147 16.7396 21.6107 16.5903 21.824C16.0783 22.528 15.5556 23.0613 15.0223 23.424C14.4889 23.7867 13.8276 23.968 13.0382 23.968ZM13.9023 22.496C14.4569 22.496 14.9689 22.304 15.4383 21.92C15.9076 21.5147 16.2916 20.9813 16.5903 20.32C16.8889 19.6587 17.0382 18.912 17.0382 18.08V15.744C17.0382 15.3387 16.8143 15.2213 16.3663 15.392C15.0649 15.8613 14.0516 16.512 13.3263 17.344C12.6222 18.1547 12.2703 19.136 12.2703 20.288C12.2703 21.76 12.8143 22.496 13.9023 22.496Z" fill="black"/>
<path d="M24.073 30.24C23.497 30.24 23.0383 30.0373 22.697 29.632C22.3557 29.248 22.185 28.8 22.185 28.288C22.185 27.8827 22.3023 27.5413 22.537 27.264C22.7717 26.9867 23.0917 26.848 23.497 26.848C23.8383 26.848 24.0837 26.9227 24.233 27.072C24.3823 27.2213 24.489 27.392 24.553 27.584C24.617 27.776 24.681 27.9467 24.745 28.096C24.809 28.2453 24.937 28.32 25.129 28.32C25.3637 28.32 25.577 28.1493 25.769 27.808C25.961 27.488 26.2277 26.7947 26.569 25.728C26.7823 25.088 26.9103 24.5333 26.953 24.064C27.017 23.5947 27.0063 23.0933 26.921 22.56C26.857 22.0267 26.697 21.376 26.441 20.608L22.953 9.504C22.8037 8.992 22.6543 8.66133 22.505 8.512C22.377 8.36267 22.1637 8.256 21.865 8.192L21.385 8.096C21.1077 8.032 20.969 7.89333 20.969 7.68C20.969 7.46667 21.1183 7.36 21.417 7.36H26.697C26.9957 7.36 27.145 7.46667 27.145 7.68C27.145 7.91467 27.0063 8.05333 26.729 8.096L26.217 8.16C25.705 8.224 25.3743 8.352 25.225 8.544C25.097 8.71467 25.1077 9.03467 25.257 9.504L28.073 18.88C28.137 19.0933 28.233 19.2 28.361 19.2C28.5103 19.2 28.617 19.0933 28.681 18.88L31.401 10.08C31.5717 9.504 31.6143 9.07733 31.529 8.8C31.465 8.50133 31.1663 8.30933 30.633 8.224L29.961 8.096C29.6837 8.032 29.545 7.89333 29.545 7.68C29.545 7.46667 29.6943 7.36 29.993 7.36H34.057C34.3557 7.36 34.505 7.47733 34.505 7.712C34.505 7.92533 34.377 8.07467 34.121 8.16L33.833 8.256C33.513 8.36267 33.2463 8.55467 33.033 8.832C32.8197 9.10933 32.5957 9.58933 32.361 10.272L27.593 25.152C27.1237 26.6453 26.697 27.7547 26.313 28.48C25.9503 29.2053 25.5983 29.6747 25.257 29.888C24.9157 30.1227 24.521 30.24 24.073 30.24Z" fill="black"/>
<path d="M40.7863 23.68C40.4663 23.68 40.3063 23.5627 40.3063 23.328C40.3063 23.136 40.4449 23.008 40.7223 22.944L41.4583 22.816C41.9063 22.7307 42.1943 22.6133 42.3223 22.464C42.4716 22.3147 42.5462 22.016 42.5462 21.568V2.752C42.5462 2.304 42.4716 2.00533 42.3223 1.856C42.1943 1.70667 41.9063 1.58933 41.4583 1.504L40.7223 1.376C40.4449 1.312 40.3063 1.184 40.3063 0.991999C40.3063 0.757332 40.4663 0.639999 40.7863 0.639999H51.0903C51.5809 0.639999 51.8476 0.885333 51.8903 1.376L52.1463 6.688C52.1889 7.05067 52.0503 7.232 51.7303 7.232C51.4743 7.232 51.3249 7.09333 51.2822 6.816L51.1222 5.76C50.9516 4.65067 50.6529 3.78667 50.2262 3.168C49.7996 2.54933 49.3196 2.112 48.7863 1.856C48.2529 1.57867 47.7409 1.44 47.2503 1.44C46.3116 1.44 45.6716 1.58933 45.3302 1.888C44.9889 2.18667 44.8182 2.64533 44.8182 3.264V10.816C44.8182 11.1147 44.9676 11.264 45.2663 11.264H46.3862C47.3249 11.264 47.9009 10.7627 48.1143 9.76L48.4663 8.16C48.5303 7.88267 48.6903 7.744 48.9463 7.744C49.2023 7.744 49.3302 7.92533 49.3302 8.288V15.488C49.3302 15.8507 49.2023 16.032 48.9463 16.032C48.6903 16.032 48.5303 15.8933 48.4663 15.616L48.1143 14.048C47.9649 13.3013 47.7516 12.8107 47.4743 12.576C47.2183 12.3413 46.8449 12.224 46.3543 12.224H45.2663C44.9676 12.224 44.8182 12.3733 44.8182 12.672V21.408C44.8182 21.856 44.8823 22.176 45.0103 22.368C45.1596 22.5387 45.4583 22.656 45.9062 22.72L47.4103 22.944C47.6449 22.9867 47.7622 23.104 47.7622 23.296C47.7622 23.552 47.6022 23.68 47.2822 23.68H40.7863Z" fill="black"/>
<path d="M57.788 23.968C56.7 23.968 55.7187 23.6053 54.844 22.88C53.9907 22.1333 53.308 21.12 52.796 19.84C52.284 18.56 52.028 17.1307 52.028 15.552C52.028 13.9733 52.284 12.5547 52.796 11.296C53.308 10.0373 54.0013 9.03467 54.876 8.288C55.7507 7.54133 56.7213 7.168 57.788 7.168C58.876 7.168 59.8467 7.54133 60.7 8.288C61.5747 9.03467 62.268 10.0373 62.78 11.296C63.292 12.5547 63.548 13.9733 63.548 15.552C63.548 17.1307 63.292 18.56 62.78 19.84C62.2893 21.12 61.6067 22.1333 60.732 22.88C59.8573 23.6053 58.876 23.968 57.788 23.968ZM57.788 23.168C60.0067 23.168 61.116 20.6293 61.116 15.552C61.116 10.496 60.0067 7.968 57.788 7.968C55.5693 7.968 54.46 10.496 54.46 15.552C54.46 20.6293 55.5693 23.168 57.788 23.168Z" fill="black"/>
<path d="M69.2825 9.408C70.1572 7.91467 71.2132 7.168 72.4505 7.168C73.1545 7.168 73.6772 7.38133 74.0185 7.808C74.3598 8.21333 74.5305 8.672 74.5305 9.184C74.5305 9.58933 74.4238 9.92 74.2105 10.176C74.0185 10.432 73.7092 10.56 73.2825 10.56C72.9412 10.56 72.6852 10.4853 72.5145 10.336C72.3652 10.1653 72.2372 9.97333 72.1305 9.76C72.0452 9.54667 71.9385 9.36533 71.8105 9.216C71.6825 9.04533 71.4692 8.96 71.1705 8.96C70.7865 8.96 70.4238 9.19467 70.0825 9.664C69.7412 10.112 69.4532 10.72 69.2185 11.488C69.0052 12.256 68.8985 13.1307 68.8985 14.112V21.536C68.8985 21.984 68.9625 22.304 69.0905 22.496C69.2398 22.688 69.5385 22.8053 69.9865 22.848L70.8505 22.944C71.0852 22.9867 71.2025 23.104 71.2025 23.296C71.2025 23.552 71.0425 23.68 70.7225 23.68H65.3145C64.9945 23.68 64.8345 23.5627 64.8345 23.328C64.8345 23.136 64.9732 23.008 65.2505 22.944L65.6345 22.88C66.0825 22.7947 66.3705 22.6667 66.4985 22.496C66.6478 22.304 66.7225 21.984 66.7225 21.536V10.784C66.7225 10.4 66.6585 10.144 66.5305 10.016C66.4238 9.86667 66.2212 9.77067 65.9225 9.728L65.2505 9.632C64.9732 9.61067 64.8345 9.49333 64.8345 9.28C64.8345 9.10933 65.0052 8.992 65.3465 8.928C66.0078 8.82133 66.5092 8.65067 66.8505 8.416C67.2132 8.18133 67.5865 7.89333 67.9705 7.552C68.1625 7.36 68.3225 7.264 68.4505 7.264C68.6425 7.264 68.7385 7.392 68.7385 7.648V9.376C68.7385 9.52533 68.8025 9.62133 68.9305 9.664C69.0585 9.68533 69.1758 9.6 69.2825 9.408Z" fill="black"/>
<path d="M80.334 23.968C79.3953 23.968 78.5527 23.648 77.806 23.008C77.0807 22.3467 76.5153 21.44 76.11 20.288C75.7047 19.1147 75.502 17.76 75.502 16.224C75.502 14.432 75.7793 12.864 76.334 11.52C76.8887 10.1547 77.6567 9.088 78.638 8.32C79.6193 7.552 80.7287 7.168 81.966 7.168C82.2647 7.168 82.5633 7.2 82.862 7.264C83.1607 7.30667 83.4487 7.392 83.726 7.52C84.0673 7.69067 84.238 7.616 84.238 7.296V3.2C84.238 2.816 84.174 2.54933 84.046 2.4C83.9393 2.25067 83.7367 2.16533 83.438 2.144L82.606 2.048C82.3713 2.00533 82.254 1.87733 82.254 1.664C82.254 1.45067 82.3713 1.32267 82.606 1.28C83.2887 1.152 83.8327 1.00267 84.238 0.831999C84.6647 0.661332 85.0167 0.490665 85.294 0.32C85.6353 0.106667 85.8913 0 86.062 0C86.2967 0 86.414 0.170666 86.414 0.511999V20.64C86.414 21.536 86.638 21.984 87.086 21.984C87.3633 21.984 87.6193 21.8027 87.854 21.44C88.0887 21.056 88.206 20.416 88.206 19.52C88.206 19.1787 88.3447 19.008 88.622 19.008C88.878 19.008 89.006 19.1893 89.006 19.552C89.006 21.1093 88.7393 22.24 88.206 22.944C87.6727 23.6267 87.0647 23.968 86.382 23.968C85.7633 23.968 85.294 23.7653 84.974 23.36C84.654 22.9333 84.4407 22.432 84.334 21.856C84.3127 21.6853 84.238 21.6 84.11 21.6C83.982 21.5787 83.8647 21.6533 83.758 21.824C83.1607 22.656 82.6167 23.2213 82.126 23.52C81.6353 23.8187 81.038 23.968 80.334 23.968ZM81.038 22.496C81.5927 22.496 82.1047 22.3147 82.574 21.952C83.0647 21.568 83.4593 21.056 83.758 20.416C84.078 19.776 84.238 19.0613 84.238 18.272V11.072C84.238 10.112 84.014 9.35467 83.566 8.8C83.1393 8.24533 82.574 7.968 81.87 7.968C80.6753 7.968 79.7047 8.672 78.958 10.08C78.2327 11.4667 77.87 13.3653 77.87 15.776C77.87 17.9733 78.1473 19.648 78.702 20.8C79.278 21.9307 80.0567 22.496 81.038 22.496Z" fill="black"/>
</svg>
