<svg width="1265" height="1265" viewBox="0 0 1265 1265" fill="none" xmlns="http://www.w3.org/2000/svg">
<path d="M702.778 0C888.311 0 1073.84 0 1265 0C1265 186.155 1265 372.309 1265 564.105C1136 592 974.5 628.5 843.333 657.316C843.333 813.5 843.333 971.5 843.333 1123.37C936.1 1123.37 1028.87 1123.37 1124.44 1123.37C1124.44 1030.69 1124.44 938.013 1124.44 842.526C1078.06 842.526 1030.47 841.827 982.677 841.827C982.277 795.488 983.089 749.848 982.677 702.105C1075.84 702.105 1169.01 702.105 1265 702.105C1265 887.461 1265 1072.82 1265 1263.79C1079.47 1263.79 893.933 1263.79 702.778 1263.79C702.778 1074.04 702.778 884.289 702.778 688.789C660 698 607 710.5 562.222 720.263C562.222 900.026 562.222 1079.79 562.222 1265C376.689 1265 191.156 1265 0 1265C0 1079.24 0 893.489 0 702.105C130.079 672.902 283.5 640.5 421.667 608.895C421.667 454.698 421.667 300.501 421.667 141.632C328.9 141.632 236.133 141.632 140.556 141.632C140.556 234.309 140.556 326.987 140.556 422.474C186.939 422.474 233.322 422.474 281.111 422.474C281.111 468.813 281.111 515.152 281.111 562.895C188.344 562.895 95.5778 562.895 0 562.895C0 377.539 0 192.183 0 1.21053C185.533 1.21053 371.067 1.21053 562.222 1.21053C562.222 191.36 562.222 381.509 562.222 577.421C606.5 568 656 557 702.778 547.158C702.778 366.596 702.778 186.034 702.778 0ZM843.333 140.421C843.333 264.258 843.333 388.095 843.333 515.684C926.552 497.434 1032.5 474 1124.44 452.737C1124.44 349.673 1124.44 246.608 1124.44 140.421C1031.68 140.421 938.911 140.421 843.333 140.421ZM140.556 813.474C140.556 916.138 140.556 1018.8 140.556 1124.58C233.322 1124.58 326.089 1124.58 421.667 1124.58C421.667 1001.54 421.667 878.503 421.667 751.737C327 771 232.5 792.5 140.556 813.474Z" fill="white"/>
</svg>
